<?xml version="1.0" encoding="utf-8"?>
<!-- Generator: Adobe Illustrator 18.1.1, SVG Export Plug-In . SVG Version: 6.00 Build 0)  -->
<!DOCTYPE svg PUBLIC "-//W3C//DTD SVG 1.1//EN" "http://www.w3.org/Graphics/SVG/1.1/DTD/svg11.dtd">
<svg version="1.1" id="Ebene_1" xmlns="http://www.w3.org/2000/svg" xmlns:xlink="http://www.w3.org/1999/xlink" x="0px" y="0px"
	 viewBox="0 0 566.9 566.9" enable-background="new 0 0 566.9 566.9" xml:space="preserve">
<path fill="#20286D" d="M478.2,89.2C426.5,37.4,357.7,8.9,284.5,8.9c-73.2,0-142,28.5-193.7,80.3C39,140.9,10.5,209.7,10.5,282.9
	c0,73.2,28.5,142,80.3,193.7c51.8,51.8,120.6,80.3,193.7,80.3c73.2,0,142-28.5,193.7-80.3c51.8-51.8,80.3-120.6,80.3-193.7
	S530,140.9,478.2,89.2z M284.5,529.9c-136.2,0-247-110.8-247-247s110.8-247,247-247c136.2,0,247,110.8,247,247
	S420.7,529.9,284.5,529.9z"/>
<g>
	<path fill="#20286D" d="M273.5,517.3c0.5-70.6,0.2-141.2,0.2-211.8c0-8,0-16,0-27.3c-15.6,0-28.8,0-43.1,0c0-30.5,0-59.1,0-90.3
		c13.7,0,27.4,0,41.4,0c1.7-30.5,1.9-58.5,5-86.2c2.5-22.8,9.9-41.3,21.3-54.8c-4.6-0.3-9.1-0.4-13.7-0.4
		c-130.5,0-236.3,105.8-236.3,236.3c0,126.8,99.9,230.3,225.3,236.1C273.5,518.4,273.5,517.9,273.5,517.3z"/>
	<path fill="#20286D" d="M429.1,96c0,4.4,0,8.9,0,13.4c-13.2,0-26-1.2-38.7,0.3c-20.1,2.3-24.1,8.4-24.5,31.9
		c-0.2,14.1,0,28.2,0,44.7c21.1,0,41.6,0,65.6,0c-2.6,31.6-4.9,60.4-7.5,91.5c-19.3,0-37.6,0-58.2,0c0,9.4,0,16.5,0,23.6
		c0,67.8-0.3,135.7,0.3,203.5c90.4-33.2,154.8-120,154.8-221.9C520.8,206.9,484.9,139.2,429.1,96z"/>
</g>
</svg>
