<?xml version="1.0" encoding="utf-8"?>
<!-- Generator: Adobe Illustrator 18.1.1, SVG Export Plug-In . SVG Version: 6.00 Build 0)  -->
<!DOCTYPE svg PUBLIC "-//W3C//DTD SVG 1.1//EN" "http://www.w3.org/Graphics/SVG/1.1/DTD/svg11.dtd">
<svg version="1.1" id="Ebene_1" xmlns="http://www.w3.org/2000/svg" xmlns:xlink="http://www.w3.org/1999/xlink" x="0px" y="0px"
	 viewBox="0 0 566.9 566.9" enable-background="new 0 0 566.9 566.9" xml:space="preserve">
<path fill-rule="evenodd" clip-rule="evenodd" fill="#2B2F5F" d="M352.2,131.1c-0.2,0.2-0.6,0.6-0.6,0.6c-0.6-0.4-0.2-0.8,0.2-1.1
	C351.9,130.7,352,130.9,352.2,131.1z"/>
<path fill="#2B2F5F" d="M478.2,89.2C426.5,37.4,357.7,8.9,284.5,8.9c-73.2,0-142,28.5-193.7,80.3C39,140.9,10.5,209.7,10.5,282.9
	c0,73.2,28.5,142,80.3,193.7c51.8,51.8,120.6,80.3,193.7,80.3c73.2,0,142-28.5,193.7-80.3c51.8-51.8,80.3-120.6,80.3-193.7
	S530,140.9,478.2,89.2z M284.5,529.9c-136.2,0-247-110.8-247-247s110.8-247,247-247c136.2,0,247,110.8,247,247
	S420.7,529.9,284.5,529.9z"/>
<path fill="#2B2F5F" d="M284.5,46.6c-130.5,0-236.3,105.8-236.3,236.3s105.8,236.3,236.3,236.3c130.5,0,236.3-105.8,236.3-236.3
	S415,46.6,284.5,46.6z M210.6,392.9c-60.4,0-109.4-49-109.4-109.4c0-60.4,49-109.4,109.4-109.4c26.2,0,50.2,9.2,69,24.5
	c-24.7,20.1-40.4,50.7-40.4,84.9c0,34.3,15.8,64.9,40.4,84.9C260.8,383.7,236.8,392.9,210.6,392.9z M364.1,395.1
	c-61.7,0-111.6-50-111.6-111.6c0-61.7,50-111.6,111.6-111.6s111.6,50,111.6,111.6C475.8,345.1,425.8,395.1,364.1,395.1z"/>
<path fill-rule="evenodd" clip-rule="evenodd" fill="#1D71B8" d="M239,283.4c0-34.2,15.7-64.8,40.4-84.8
	c-18.8-15.3-42.8-24.5-68.9-24.5c-60.3,0-109.2,48.9-109.2,109.2c0,60.3,48.9,109.2,109.2,109.2c26.1,0,50.1-9.2,68.9-24.5
	C254.8,348.2,239,317.7,239,283.4z"/>
<circle fill-rule="evenodd" clip-rule="evenodd" fill="#C7114F" cx="363.8" cy="283.5" r="111.4"/>
</svg>
