<?xml version="1.0" encoding="utf-8"?>
<!-- Generator: Adobe Illustrator 16.0.4, SVG Export Plug-In . SVG Version: 6.00 Build 0)  -->
<!DOCTYPE svg PUBLIC "-//W3C//DTD SVG 1.1//EN" "http://www.w3.org/Graphics/SVG/1.1/DTD/svg11.dtd">
<svg version="1.1" id="Ebene_1" xmlns="http://www.w3.org/2000/svg" xmlns:xlink="http://www.w3.org/1999/xlink" x="0px" y="0px"
	 width="60px" height="60px" viewBox="0 0 60 60" enable-background="new 0 0 60 60" xml:space="preserve">
<path fill="#2B2F5F" d="M51.213,8.787C45.547,3.121,38.013,0,30,0S14.453,3.121,8.787,8.787C3.121,14.453,0,21.987,0,30
	s3.121,15.547,8.787,21.213C14.453,56.879,21.987,60,30,60s15.547-3.121,21.213-8.787C56.879,45.547,60,38.013,60,30
	S56.879,14.453,51.213,8.787z M30,57.044C15.088,57.044,2.956,44.912,2.956,30S15.088,2.956,30,2.956S57.044,15.088,57.044,30
	S44.912,57.044,30,57.044z"/>
<path fill-rule="evenodd" clip-rule="evenodd" fill="#FFFFFF" d="M37.52,13.555c-0.023,0.022-0.062,0.068-0.067,0.065
	c-0.069-0.047-0.027-0.083,0.018-0.118C37.486,13.52,37.503,13.537,37.52,13.555z"/>
<path fill-rule="evenodd" clip-rule="evenodd" fill="#1D71B8" d="M23.924,29.853c0-4.271,1.964-8.082,5.038-10.582
	c-2.345-1.908-5.336-3.052-8.595-3.052c-7.529,0-13.633,6.104-13.633,13.633s6.104,13.633,13.633,13.633
	c3.259,0,6.25-1.144,8.595-3.051C25.889,37.935,23.924,34.124,23.924,29.853z"/>
<circle fill-rule="evenodd" clip-rule="evenodd" fill="#C7114F" cx="39.49" cy="29.856" r="13.908"/>
</svg>
