<?xml version="1.0" encoding="utf-8"?>
<!-- Generator: Adobe Illustrator 16.0.4, SVG Export Plug-In . SVG Version: 6.00 Build 0)  -->
<!DOCTYPE svg PUBLIC "-//W3C//DTD SVG 1.1//EN" "http://www.w3.org/Graphics/SVG/1.1/DTD/svg11.dtd">
<svg version="1.1" id="Ebene_1" xmlns="http://www.w3.org/2000/svg" xmlns:xlink="http://www.w3.org/1999/xlink" x="0px" y="0px"
	 width="41.303px" height="41.303px" viewBox="0 0 41.303 41.303" enable-background="new 0 0 41.303 41.303" xml:space="preserve">
<path fill="#001722" d="M-438.63-460.061c-0.005,0.005-0.01,0.01-0.016,0.015C-438.641-460.051-438.637-460.056-438.63-460.061
	L-438.63-460.061z"/>
<path fill="#F37043" d="M28.549,37.507c-0.018-0.812-0.148-1.786-0.198-2.586c-0.06-0.964-0.6-3.685-0.822-4.611
	c-0.222-0.926-0.378-2.135-0.393-2.809s0.022-0.822,0.192-1.349c0.171-0.526,1.193-1.601,1.608-1.839
	c0.415-0.236,1.705-1.022,2.202-1.415c0.497-0.394,1.705-2.238,1.912-2.58c0.208-0.341,0.949-2.498,1.075-2.839
	c0.126-0.34,0.126-1.149,0.177-1.4c0.053-0.252,0.164-0.793,0.193-0.941c0.03-0.148,0.022-0.297,0.378-0.652
	c0.356-0.356,1.72-1.49,1.927-1.653c0.208-0.163-0.111-0.63-0.267-0.882c-0.156-0.252-0.563-0.859-0.615-0.971
	c-0.052-0.11-0.037-0.503-0.126-0.771c-0.089-0.267-0.355-0.178-0.541-0.088c-0.186,0.088-0.223,0.659-0.2,0.8
	c0.022,0.141-0.037,0.133-0.2,0.17c-0.163,0.037-0.526,0.215-0.711,0.319c-0.185,0.104-0.349,0.185-0.415,0.348
	s-0.141,0.452-0.052,0.615c0.089,0.164-0.177,0.423-0.311,0.563c-0.134,0.141-0.349,0.72-0.356,0.949
	c-0.008,0.23-0.26,0.815-0.372,0.986c-0.111,0.171-0.281,0.445-0.592,0.445c-0.312,0-0.46,0.43-0.579,0.652
	c-0.119,0.223-1.097,2.068-1.267,2.417c-0.17,0.348-0.29,0.519-0.63,0.578c-0.341,0.059-0.593-0.349-0.919-0.43
	c-0.326-0.082-1.267,0.296-1.63,0.438c-0.363,0.141-0.66,0.059-0.8-0.215c-0.141-0.274,0.036-0.355,0.177-0.682
	c0.141-0.326,0.504-0.512,0.741-1.171c0.238-0.66,0.142-1.267,0.075-2.179c-0.067-0.912-0.378-1.283-0.623-1.697
	c-0.245-0.415-1.297-0.793-1.979-0.793c-0.682,0-0.964,0.393-1.275,0.622c-0.311,0.23-0.563,0.623-0.6,0.882
	s-0.141,0.178-0.312,0.267c-0.171,0.089-0.29,0.756-0.333,1.097c-0.044,0.342,0.104,1.715,0.119,1.874
	c0.015,0.158-0.01,0.845-0.059,1.112c-0.05,0.267-0.352,0.523-0.524,0.775c-0.173,0.252-0.262,0.272-0.662,0.242
	s-1.29-0.067-1.668-0.067c-0.378,0-0.934-0.037-1.253,0.015c-0.318,0.052-0.837,0.415-1.038,0.541c-0.2,0.126-0.474,0.4-0.8,0.46
	c-0.326,0.059-0.571-0.03-1.186-0.156c-0.615-0.126-0.956-0.118-1.638-0.229s-1.023-0.119-1.334-0.245s-0.949-0.785-1.26-0.993
	c-0.312-0.208-1.23-1.193-1.467-1.438c-0.238-0.244-1.342-1.467-1.586-1.742s-0.438-0.482-0.541-1.007
	c-0.104-0.527,0-0.594,0.103-0.838c0.104-0.245,0.03-1.097-0.215-1.586c-0.244-0.489-0.518-0.533-0.674-0.489
	s-0.074,0.393,0.007,0.496s0.229,0.46,0.229,0.571c0,0.111-0.096,0.17-0.177,0.164c-0.082-0.007-0.074-0.267-0.074-0.393
	c-0.053-0.208-0.349-0.556-0.593-0.667c-0.245-0.112-0.334,0.021-0.592,0.074c-0.26,0.052-0.682,0.511-0.861,0.733
	c-0.177,0.223-0.358,0.604-0.355,0.734s1.334,1.67,1.424,1.779c0.089,0.109,0.444,0.825,0.523,0.935
	c0.08,0.108,0.257,0.612,0.391,0.76s0.168,0.425,0.124,0.489s-0.504,0.129-0.267,0.307c0.237,0.178,0.06,0.133,0.505,0.8
	c0.444,0.667,2.445,2.832,2.935,3.366c0.489,0.533,5.966,1.297,6.333,3.002c0.422,1.963-1.552,6.322-1.601,6.678
	c-0.05,0.355-0.446,2.184-0.515,2.58c-0.07,0.395-0.327,1.432-0.445,1.758s-0.533,1.592-0.682,1.938
	c-0.004,0.01-0.01,0.027-0.016,0.05c2.413,1.146,5.109,1.787,7.954,1.787C23.474,39.268,26.15,38.636,28.549,37.507z"/>
<path fill="#F37043" d="M35.254,6.049C31.354,2.148,26.168,0,20.652,0C15.135,0,9.949,2.148,6.049,6.049S0,15.135,0,20.652
	c0,5.516,2.148,10.702,6.049,14.603s9.086,6.049,14.603,6.049c5.516,0,10.702-2.148,14.603-6.049s6.049-9.087,6.049-14.603
	C41.303,15.135,39.155,9.949,35.254,6.049z M20.652,39.268c-10.266,0-18.617-8.351-18.617-18.616S10.386,2.035,20.652,2.035
	c10.265,0,18.616,8.351,18.616,18.617S30.917,39.268,20.652,39.268z"/>
</svg>
