<?xml version="1.0" encoding="utf-8"?>
<!-- Generator: Adobe Illustrator 18.1.1, SVG Export Plug-In . SVG Version: 6.00 Build 0)  -->
<!DOCTYPE svg PUBLIC "-//W3C//DTD SVG 1.1//EN" "http://www.w3.org/Graphics/SVG/1.1/DTD/svg11.dtd">
<svg version="1.1" id="Ebene_1" xmlns="http://www.w3.org/2000/svg" xmlns:xlink="http://www.w3.org/1999/xlink" x="0px" y="0px"
	 viewBox="0 0 566.9 566.9" enable-background="new 0 0 566.9 566.9" xml:space="preserve">
<path fill-rule="evenodd" clip-rule="evenodd" fill="#1B75BC" d="M352.2,131.1c-0.2,0.2-0.6,0.6-0.6,0.6c-0.6-0.4-0.2-0.8,0.2-1.1
	C351.9,130.7,352,130.9,352.2,131.1z"/>
<path fill="#1B75BC" d="M478.2,89.2C426.5,37.4,357.7,8.9,284.5,8.9c-73.2,0-142,28.5-193.7,80.3C39,140.9,10.5,209.7,10.5,282.9
	c0,73.2,28.5,142,80.3,193.7c51.8,51.8,120.6,80.3,193.7,80.3c73.2,0,142-28.5,193.7-80.3c51.8-51.8,80.3-120.6,80.3-193.7
	S530,140.9,478.2,89.2z M284.5,529.9c-136.2,0-247-110.8-247-247s110.8-247,247-247c136.2,0,247,110.8,247,247
	S420.7,529.9,284.5,529.9z"/>
<path fill="#1B75BC" d="M284.5,46.6c-130.5,0-236.3,105.8-236.3,236.3s105.8,236.3,236.3,236.3c130.5,0,236.3-105.8,236.3-236.3
	S415,46.6,284.5,46.6z M425.2,230c0.1,2.8,0.2,5.7,0.2,8.5c0,87.1-66.3,187.5-187.5,187.5c-37.2,0-71.9-10.9-101-29.6
	c5.2,0.6,10.4,0.9,15.7,0.9c30.9,0,59.3-10.5,81.9-28.2c-28.8-0.5-53.2-19.6-61.6-45.8c4,0.8,8.2,1.2,12.4,1.2
	c6,0,11.8-0.8,17.4-2.3c-30.2-6.1-52.9-32.7-52.9-64.6c0-0.3,0-0.6,0-0.8c8.9,4.9,19,7.9,29.9,8.2c-17.7-11.8-29.3-32-29.3-54.9
	c0-12.1,3.3-23.4,8.9-33.1c32.5,39.9,81.1,66.1,135.9,68.9c-1.1-4.8-1.7-9.9-1.7-15c0-36.4,29.5-65.9,65.9-65.9
	c19,0,36.1,8,48.1,20.8c15-3,29.1-8.4,41.9-16c-4.9,15.4-15.4,28.3-29,36.5c13.3-1.6,26-5.1,37.9-10.4
	C449.2,209.1,438,220.7,425.2,230z"/>
</svg>
