<?xml version="1.0" encoding="utf-8"?>
<!-- Generator: Adobe Illustrator 18.1.1, SVG Export Plug-In . SVG Version: 6.00 Build 0)  -->
<!DOCTYPE svg PUBLIC "-//W3C//DTD SVG 1.1//EN" "http://www.w3.org/Graphics/SVG/1.1/DTD/svg11.dtd">
<svg version="1.1" id="Ebene_1" xmlns="http://www.w3.org/2000/svg" xmlns:xlink="http://www.w3.org/1999/xlink" x="0px" y="0px"
	 viewBox="0 0 566.9 566.9" enable-background="new 0 0 566.9 566.9" xml:space="preserve">
<path fill="#B72126" d="M478.2,89.2C426.5,37.4,357.7,8.9,284.5,8.9c-73.2,0-142,28.5-193.7,80.3C39,140.9,10.5,209.7,10.5,282.9
	c0,73.2,28.5,142,80.3,193.7c51.8,51.8,120.6,80.3,193.7,80.3c73.2,0,142-28.5,193.7-80.3c51.8-51.8,80.3-120.6,80.3-193.7
	S530,140.9,478.2,89.2z M284.5,529.9c-136.2,0-247-110.8-247-247s110.8-247,247-247c136.2,0,247,110.8,247,247
	S420.7,529.9,284.5,529.9z"/>
<g>
	<path fill="#B72126" d="M276.1,217.4c1.6,3.1,5,6.7,8.2,7.4c4.3,0.9,7.4-2.9,9-7.1c0.5-1.2,1-2.5,1.1-3.8
		c0.6-11.3,1.1-22.6,1.7-33.9c-0.2,0-0.3,0-0.5,0c0-8.5,0.3-17.1-0.1-25.6c-0.2-4.6-0.9-9.6-2.9-13.7c-1.3-2.6-5.2-5.5-8-5.5
		c-2.8,0-6.9,2.8-8.1,5.4c-2,4.3-2.8,9.4-2.8,14.2c-0.3,16.7-0.3,33.3,0,50C273.7,209,274.2,213.7,276.1,217.4z"/>
	<path fill="#B72126" d="M106.7,433.2c-0.1-35.8,0-71.7,0-107.5c0-29.8,18.5-53.5,47.5-60.4c4.6-1.1,9.4-1.6,14-1.6
		c77-0.1,154-0.1,230.9,0c34.7,0,61,26.5,61,61.1c0,37.5-0.2,75.1,0.1,112.6c0,1.2,0,2.4-0.1,3.5c37.7-41.9,60.6-97.3,60.6-158.1
		c0-130.5-105.8-236.3-236.3-236.3c-36.3,0-70.8,8.2-101.5,22.9c1.9,0,3.8,0,5.7-0.2c5.1-0.4,7.3,1.5,8.7,6.4
		c5.6,19,11.6,37.8,18,58.5c6.1-20.1,12.1-38.7,17.4-57.5c1.6-5.5,3.9-7.9,9.8-7.4c6.2,0.5,12.4,0.1,19.9,0.1
		c-0.8,3.4-1.3,6-2.1,8.5c-10.2,29.8-20.5,59.5-30.6,89.3c-1.1,3.2-1.7,6.6-1.7,9.9c-0.2,20.3-0.1,40.6-0.1,60.9c0,2.2,0,4.4,0,7
		c-8.8,0-16.8,0-25.6,0c-0.1-2-0.3-4-0.3-6c0-16.3-0.5-32.6,0.1-48.9c0.5-12.7-2-24.6-6.3-36.4c-9.4-25.5-18.1-51.3-27-77
		C96.9,117.2,48.1,194.3,48.1,282.9c0,59.8,22.2,114.4,58.8,156C106.8,437,106.7,435.1,106.7,433.2z M333.2,113.8
		c7,0,13.8-0.3,20.5,0.3c1.1,0.1,2.7,3.6,2.8,5.6c0.2,19.1,0.1,38.3,0.1,57.4c0,10.4,0,20.9,0.1,31.3c0,2.4,0.5,4.9,1.2,7.2
		c1.2,3.6,3.2,6.3,7.6,6.4c4.6,0,7.5-2.5,8.3-6.3c1.2-6.4,1.9-13.1,2-19.7c0.2-24.5,0.1-48.9,0.1-73.4c0-2.8,0.3-5.6,0.5-8.8
		c7.2,0,13.8-0.2,20.4,0.2c1.4,0.1,2.9,2.1,3.8,3.6c0.6,1,0.2,2.6,0.2,3.9c0,38.9-0.1,77.7,0.1,116.6c0,5.5-1.3,8-7.3,7.5
		c-5.4-0.5-10.9-0.1-16.9-0.1c-0.2-3.5-0.3-6.1-0.5-9.9c-4.3,7-8.9,12-16.4,13.4c-14.1,2.5-25.9-5.9-26.3-21.6
		C332.6,189.7,333.2,152.1,333.2,113.8z M252.7,135.1c5.4-24.5,35.3-34,53.7-17.7c9,7.9,11.9,18.9,12.5,30.1
		c1,17.5,1.5,35.1,1.1,52.7c-0.2,9.3-1.9,18.8-4.7,27.7c-4.4,14.3-16.3,22.3-31,21.6c-13.7-0.6-25.9-4.9-30.6-22.9
		c-3.3-12.8-3.4-26.4-4.9-39.7c-0.3-2.6,0-5.3,0-8c-0.4,0-0.9-0.1-1.3-0.1C249.1,164.2,249.5,149.3,252.7,135.1z"/>
	<path fill="#B72126" d="M389.7,399c10.4,0.4,20.8,0.1,33.3,0.1c-1.5-14.4-1.9-28.1-4.6-41.2c-3.2-15.5-17-22.5-32.6-18.9
		c-14.9,3.4-20.4,15.3-21.1,29.2c-0.9,17.7-1.3,35.6,0.1,53.2c1.5,20.2,7.9,34.7,33.2,32.3c9-0.9,16.4-4.7,19.3-13.4
		c2.3-7,2.7-14.7,3.7-22.1c0.1-1.1-1.2-3.4-1.9-3.4c-4.7-0.2-9.6-0.6-14,0.5c-1.2,0.3-1.3,5.4-1.9,8.2c-0.2,1.1-0.6,2.2-0.9,3.3
		c-1.2,5-3.6,9.3-9.2,9.1c-5.5-0.2-8.1-4.8-8.7-9.7c-0.8-6.7-0.7-13.5-1.3-20.3C382.6,400.7,384.4,398.8,389.7,399z M382.9,371.3
		c0.4-3.1,0.4-6.9,2.1-9.2c1.9-2.5,5.6-4.8,8.5-4.8c2.6,0,6.6,2.9,7.4,5.3c1.7,5.3,1.8,11,2.1,16.6c0.1,1.1-2.1,2.9-3.5,3.3
		c-2.1,0.6-4.5,0.1-6.8,0.1C382.4,382.7,381.5,381.7,382.9,371.3z"/>
	<path fill="#B72126" d="M219,427.3c0,4.3,0.7,8.7,1.7,12.9c1.4,6.5,4.8,11.8,11.7,13.3c7.7,1.6,14.7,0.2,19.5-7
		c0.7-1.1,1.9-2,3.5-3.8c0.7,3.5,1.2,6,1.6,8.4c5.6,0,10.9,0,16.6,0c0-36.7,0-72.8,0-109.2c-6.2,0-11.9,0-18.3,0c0,2.4,0,4.5,0,6.5
		c0,23.5,0.1,47-0.1,70.5c0,3.1-0.3,6.8-1.9,9.2c-1.5,2.2-4.9,4.3-7.5,4.3c-2.3,0-5.5-2.4-6.8-4.6c-1.4-2.4-1.5-5.8-1.5-8.8
		c-0.1-23.7-0.1-47.4-0.1-71.1c0-2-0.2-4-0.3-6.5c-4.4,0-8.2,0.3-11.9-0.1c-4.9-0.5-6.5,1.1-6.5,6.2
		C219.1,374.2,218.9,400.8,219,427.3z"/>
	<path fill="#B72126" d="M283.7,497.6c-32.7,0-65.4,0-98.1,0c30.1,13.9,63.6,21.6,98.9,21.6c35.3,0,68.9-7.8,99-21.7
		C350.2,497.3,316.9,497.6,283.7,497.6z"/>
	<path fill="#B72126" d="M200.6,327.3c5.8,0.3,11.5,0.1,17.1,0.1c0-8.4,0-15.6,0-23.2c-21.8,0-43-0.1-64.2,0.2
		c-1.3,0-3.7,2.5-3.8,3.9c-0.4,6-0.2,12.1-0.2,18.2c1.1,0.5,1.4,0.7,1.8,0.7c4.9,0.1,9.9,0.1,14.8,0.2c8.1,0,8.2,0.1,8.2,8.3
		c0,36,0,72.1,0,108.1c0,2.4,0.2,4.8,0.4,7.6c4.7,0,8.9-0.3,13,0.1c5.3,0.5,6.7-1.4,6.7-6.6c-0.2-37,0-74-0.2-110.9
		C194.1,328.9,195.5,327,200.6,327.3z"/>
	<path fill="#B72126" d="M311.3,308.7c0-1.5-2-4.2-3.3-4.3c-4.8-0.5-9.7-0.2-14.7-0.2c0,49.3,0,97.9,0,146.8c5.7,0,11.1,0,16.5,0
		c0.5-2.7,0.9-5.1,1.6-8.7c1.6,2,2.3,2.8,2.9,3.7c8,11.4,22.4,10.9,29.1-1.2c2.1-3.9,3.7-8.3,4.5-12.7c3.7-22.4,3.1-44.9,0.9-67.3
		c-0.7-6.7-3.4-13.7-6.9-19.4c-5.6-9.3-17.9-9.7-25.3-1.8c-1.2,1.3-2.4,2.6-4.6,5c-0.2-3.5-0.4-5.4-0.4-7.4
		C311.4,330.3,311.6,319.5,311.3,308.7z M313.9,365.1c1.1-3.6,3.5-6.2,7.8-6.1c4.5,0.1,6.6,3,7.4,6.6c1.2,5.7,1.8,11.5,2.3,17.3
		c0.4,4.3,0.1,8.7,0.1,13.1c0.2,0,0.4,0,0.6,0c-0.5,8.5-0.9,17-1.6,25.4c-0.7,8-4.2,12.4-9,12.5c-5.2,0.1-9.6-4.8-9.8-12.5
		c-0.4-14.9-0.4-29.8-0.2-44.8C311.5,372.8,312.7,368.8,313.9,365.1z"/>
</g>
</svg>
